<svg id="svg" version="1.1" xmlns="http://www.w3.org/2000/svg" xmlns:xlink="http://www.w3.org/1999/xlink" width="400" height="72.44444444444444" viewBox="0, 0, 400,72.44444444444444"><g id="svgg"><path id="path0" d="M86.333 21.638 C 86.333 25.401,86.275 28.516,86.205 28.560 C 86.134 28.604,85.704 28.302,85.249 27.890 C 81.661 24.642,75.568 24.950,72.126 28.554 C 67.503 33.392,67.216 45.070,71.586 50.510 C 74.742 54.438,81.347 54.538,85.115 50.716 C 86.572 49.237,86.433 49.222,86.573 50.875 C 86.768 53.178,86.598 53.000,88.601 53.000 L 90.333 53.000 90.333 34.180 L 90.333 15.360 89.875 15.274 C 89.623 15.226,88.967 15.141,88.417 15.085 C 87.867 15.029,87.173 14.940,86.875 14.889 L 86.333 14.796 86.333 21.638 M24.333 25.899 C 21.684 26.488,19.552 28.377,17.618 31.849 C 17.190 32.616,17.064 32.339,16.846 30.167 C 16.741 29.113,16.575 27.781,16.477 27.208 L 16.299 26.167 12.733 26.167 L 9.167 26.167 9.167 27.667 L 9.167 29.167 11.063 29.167 C 12.460 29.167,13.009 29.226,13.148 29.394 C 13.284 29.558,13.324 32.390,13.293 39.685 L 13.250 49.750 11.208 49.797 L 9.167 49.844 9.167 51.422 L 9.167 53.000 16.000 53.000 L 22.833 53.000 22.833 51.421 L 22.833 49.842 20.125 49.796 L 17.417 49.750 17.367 44.167 C 17.309 37.641,17.272 37.874,18.888 34.639 C 20.518 31.376,22.603 29.777,25.708 29.409 L 26.667 29.295 26.667 32.153 L 26.667 35.012 28.375 34.964 L 30.083 34.917 30.289 31.583 C 30.402 29.750,30.514 27.765,30.539 27.171 L 30.583 26.093 29.500 25.887 C 28.128 25.628,25.526 25.633,24.333 25.899 M47.000 25.912 C 41.455 27.001,38.151 32.063,38.129 39.500 C 38.104 48.261,42.390 53.500,49.583 53.500 C 57.090 53.500,61.209 48.128,60.956 38.667 C 60.703 29.234,55.287 24.283,47.000 25.912 M109.133 25.838 C 97.751 27.757,96.117 48.284,107.000 52.626 C 110.746 54.121,115.576 53.664,119.557 51.438 C 121.153 50.545,121.164 50.512,120.310 49.350 C 119.910 48.807,119.505 48.233,119.410 48.074 C 119.252 47.812,119.124 47.848,117.976 48.478 C 110.833 52.399,104.070 48.961,104.003 41.375 L 104.000 41.000 113.100 41.000 L 122.200 41.000 122.129 38.125 C 121.913 29.337,116.838 24.539,109.133 25.838 M136.546 25.891 C 135.607 26.148,134.182 27.205,133.319 28.286 C 132.933 28.770,132.563 29.167,132.498 29.167 C 132.353 29.167,132.167 27.888,132.167 26.893 L 132.167 26.167 130.583 26.167 L 129.000 26.167 129.000 39.583 L 129.000 53.000 130.833 53.000 L 132.667 53.000 132.667 42.515 L 132.667 32.030 133.311 31.223 C 134.897 29.238,136.943 28.355,138.483 28.993 C 139.604 29.457,139.578 29.167,139.629 41.708 L 139.676 53.000 141.588 53.000 L 143.500 53.000 143.500 42.515 L 143.500 32.030 144.144 31.223 C 146.144 28.720,149.046 27.984,150.093 29.715 C 150.404 30.229,150.419 30.707,150.465 41.625 L 150.513 53.000 152.423 53.000 L 154.333 53.000 154.330 42.708 C 154.327 31.915,154.247 30.166,153.683 28.667 C 152.189 24.690,147.011 24.596,143.811 28.489 L 143.204 29.226 142.755 28.277 C 141.734 26.118,139.235 25.158,136.546 25.891 M169.667 25.862 C 161.775 26.984,159.511 35.389,166.204 38.715 C 167.396 39.308,169.847 40.152,171.167 40.424 C 176.131 41.447,178.222 43.226,177.953 46.196 C 177.553 50.603,169.175 51.611,163.937 47.882 C 163.270 47.407,163.089 47.344,162.925 47.527 C 162.816 47.650,162.296 48.251,161.770 48.863 L 160.815 49.975 161.699 50.640 C 165.508 53.504,172.082 54.365,176.917 52.633 C 184.026 50.085,184.563 41.849,177.820 38.776 C 176.660 38.248,175.882 37.988,172.208 36.902 C 167.392 35.479,166.221 34.344,166.737 31.596 C 167.346 28.347,176.255 27.961,179.945 31.024 C 180.243 31.271,180.413 31.115,181.251 29.832 C 182.174 28.418,182.180 28.519,181.125 27.890 C 177.975 26.014,173.798 25.274,169.667 25.862 M83.108 29.593 C 83.972 30.012,84.578 30.469,85.316 31.258 L 86.333 32.346 86.333 39.101 L 86.333 45.857 85.845 46.566 C 83.220 50.382,78.362 51.354,75.550 48.626 C 72.125 45.303,72.064 34.598,75.448 30.834 C 77.286 28.789,80.406 28.284,83.108 29.593 M52.500 29.484 C 55.421 30.992,56.667 33.987,56.667 39.500 C 56.667 46.787,54.492 50.074,49.667 50.081 C 45.002 50.087,42.967 47.438,42.562 40.829 C 42.199 34.903,43.858 30.643,47.030 29.362 C 48.315 28.843,51.392 28.912,52.500 29.484 M114.313 29.564 C 116.607 30.750,118.609 34.628,118.303 37.291 L 118.250 37.750 111.167 37.750 L 104.083 37.750 104.135 36.833 C 104.339 33.241,106.208 30.365,109.012 29.329 C 110.415 28.810,113.084 28.929,114.313 29.564 " stroke="none" fill="#049cfc" fill-rule="evenodd"></path><path id="path1" d="M0.000 36.167 L 0.000 72.333 200.000 72.333 L 400.000 72.333 400.000 36.167 L 400.000 0.000 200.000 0.000 L 0.000 0.000 0.000 36.167 M331.042 11.101 C 332.342 12.476,332.504 12.041,329.573 15.027 C 326.032 18.633,323.842 21.772,323.083 24.333 C 323.015 24.563,322.900 24.825,322.828 24.917 C 322.614 25.190,322.147 26.985,321.896 28.500 C 321.768 29.279,321.582 30.271,321.483 30.705 C 321.253 31.720,321.250 38.430,321.480 39.462 C 321.576 39.895,321.736 40.808,321.834 41.489 C 322.541 46.382,325.085 50.787,330.049 55.715 C 331.954 57.606,332.171 57.878,331.973 58.128 C 330.850 59.542,329.939 60.312,329.601 60.133 C 328.174 59.376,323.463 54.577,321.206 51.583 C 319.797 49.713,318.013 45.745,317.385 43.083 C 316.910 41.072,316.850 40.676,316.641 38.235 C 316.363 34.998,316.512 31.060,316.998 28.765 C 317.289 27.388,317.674 25.908,317.824 25.583 C 317.910 25.400,318.030 25.063,318.091 24.833 C 318.321 23.981,319.376 21.704,320.215 20.250 C 320.923 19.023,322.281 17.150,323.176 16.167 C 325.107 14.046,326.276 12.913,329.000 10.522 C 329.792 9.827,329.853 9.844,331.042 11.101 M353.973 11.484 C 357.964 15.012,360.640 18.186,362.277 21.333 C 362.980 22.685,364.000 25.177,364.000 25.542 C 364.000 25.665,364.068 25.838,364.150 25.925 C 364.287 26.070,364.576 27.267,365.052 29.667 C 365.298 30.906,365.292 39.472,365.044 40.667 C 363.675 47.270,361.720 50.973,357.004 55.892 C 355.809 57.140,352.722 59.940,352.244 60.212 C 352.008 60.346,351.681 60.072,350.360 58.635 L 349.642 57.853 351.814 55.718 C 353.008 54.544,354.513 52.908,355.158 52.083 C 355.803 51.258,356.390 50.508,356.463 50.417 C 356.804 49.986,358.053 47.683,358.485 46.691 C 359.383 44.624,359.939 42.630,360.168 40.658 C 360.269 39.792,360.422 38.721,360.509 38.279 C 360.714 37.232,360.712 33.032,360.506 31.843 C 360.417 31.334,360.238 30.167,360.107 29.250 C 359.856 27.483,359.472 25.924,359.074 25.058 C 358.942 24.769,358.833 24.445,358.833 24.337 C 358.833 22.813,355.038 17.567,351.449 14.130 L 349.583 12.343 350.746 11.172 C 352.179 9.727,351.960 9.706,353.973 11.484 M89.630 15.062 L 90.583 15.250 90.626 34.125 L 90.668 53.000 88.667 53.000 C 87.181 53.000,86.665 52.946,86.662 52.792 C 86.650 52.323,86.334 50.136,86.261 50.018 C 86.218 49.948,85.635 50.426,84.966 51.081 C 81.432 54.542,75.486 54.596,72.023 51.200 C 67.190 46.459,67.062 33.890,71.795 28.661 C 75.251 24.842,81.541 24.355,85.178 27.625 C 85.611 28.014,86.011 28.333,86.066 28.333 C 86.121 28.333,86.167 25.252,86.167 21.486 L 86.167 14.638 87.421 14.756 C 88.111 14.820,89.105 14.958,89.630 15.062 M243.167 14.982 L 243.917 15.087 243.917 34.085 L 243.917 53.083 241.988 53.130 L 240.060 53.177 239.863 52.326 C 239.755 51.858,239.667 51.193,239.667 50.848 C 239.667 49.935,239.598 49.948,238.426 51.081 C 234.260 55.105,227.319 54.541,224.175 49.922 C 223.652 49.154,222.833 47.556,222.833 47.303 C 222.833 47.210,222.720 46.894,222.581 46.601 C 221.303 43.909,221.306 35.507,222.586 33.053 C 222.721 32.795,222.832 32.497,222.832 32.392 C 222.834 32.019,223.824 30.213,224.570 29.219 C 227.863 24.839,234.213 24.119,238.625 27.626 L 239.333 28.189 239.333 21.539 C 239.333 17.881,239.389 14.834,239.456 14.766 C 239.575 14.647,241.641 14.767,243.167 14.982 M29.875 25.775 L 30.855 26.050 30.765 27.067 C 30.715 27.626,30.633 28.908,30.583 29.917 C 30.532 30.925,30.408 32.559,30.306 33.547 L 30.122 35.344 28.353 35.297 L 26.583 35.250 26.538 32.375 L 26.492 29.500 26.031 29.500 C 23.140 29.500,20.308 31.775,18.647 35.431 C 17.493 37.972,17.509 37.856,17.504 44.042 L 17.500 49.667 20.250 49.667 L 23.000 49.667 23.000 51.333 L 23.000 53.000 15.911 53.000 L 8.821 53.000 8.869 51.375 L 8.917 49.750 11.043 49.703 L 13.169 49.657 13.126 39.620 L 13.083 29.583 11.000 29.500 L 8.917 29.417 8.917 27.750 L 8.917 26.083 12.700 26.039 L 16.484 25.994 16.572 26.539 C 16.683 27.231,17.003 29.815,17.119 30.958 C 17.234 32.088,17.259 32.077,18.278 30.455 C 20.900 26.282,25.322 24.497,29.875 25.775 M52.927 25.846 C 58.314 27.256,61.233 32.054,61.233 39.500 C 61.233 48.518,57.051 53.567,49.583 53.567 C 41.942 53.567,38.084 48.873,38.091 39.583 C 38.098 31.571,41.101 26.989,47.250 25.613 C 48.298 25.379,51.669 25.517,52.927 25.846 M114.415 25.843 C 119.615 27.205,123.252 33.616,122.405 39.926 L 122.250 41.083 113.208 41.126 L 104.167 41.170 104.167 41.635 C 104.167 48.989,111.209 52.166,118.394 48.054 L 119.205 47.590 119.532 48.003 C 121.383 50.344,121.416 50.472,120.353 51.154 C 111.520 56.822,101.722 53.007,99.836 43.167 C 97.730 32.175,105.110 23.406,114.415 25.843 M140.030 25.672 C 141.117 25.974,142.187 26.836,142.735 27.851 L 143.239 28.785 144.343 27.646 C 147.308 24.584,151.928 24.762,153.581 28.001 C 154.432 29.669,154.500 30.723,154.500 42.305 L 154.500 53.000 152.417 53.000 L 150.333 53.000 150.330 42.542 C 150.326 28.997,150.326 29.000,148.261 29.000 C 146.740 29.000,145.387 29.784,144.259 31.321 L 143.667 32.128 143.667 42.564 L 143.667 53.000 141.591 53.000 L 139.515 53.000 139.466 41.708 C 139.421 31.299,139.394 30.375,139.123 29.880 C 138.199 28.190,135.318 28.893,133.497 31.254 L 132.833 32.114 132.833 42.557 L 132.833 53.000 130.749 53.000 L 128.665 53.000 128.707 39.542 L 128.750 26.083 130.403 26.035 C 132.330 25.979,132.267 25.930,132.426 27.621 L 132.540 28.841 133.655 27.678 C 135.523 25.731,137.736 25.035,140.030 25.672 M175.917 25.750 C 178.330 26.257,181.605 27.645,182.049 28.350 C 182.213 28.611,181.597 29.799,180.675 30.997 L 180.357 31.410 179.054 30.718 C 173.072 27.544,165.695 29.106,166.826 33.307 C 167.282 34.998,168.521 35.680,174.000 37.254 C 180.439 39.104,182.583 41.164,182.583 45.500 C 182.583 51.212,176.797 54.544,168.638 53.528 C 165.783 53.173,161.060 51.098,160.709 50.045 C 160.658 49.891,162.915 47.167,163.093 47.167 C 163.128 47.167,163.666 47.496,164.289 47.899 C 170.883 52.165,179.884 49.477,177.514 43.950 C 176.968 42.676,173.132 40.667,171.248 40.667 C 170.744 40.667,166.822 39.259,165.833 38.724 C 163.300 37.352,162.167 35.558,162.167 32.919 C 162.167 29.079,164.869 26.506,169.833 25.620 C 170.866 25.435,174.819 25.520,175.917 25.750 M268.583 26.020 C 273.527 28.026,275.967 32.494,275.797 39.229 L 275.750 41.083 266.684 41.126 L 257.619 41.170 257.729 42.489 C 257.986 45.575,259.626 48.094,262.134 49.257 C 263.648 49.959,267.689 50.009,268.972 49.341 C 269.125 49.261,269.700 48.985,270.250 48.727 C 270.800 48.469,271.527 48.081,271.865 47.863 C 272.204 47.646,272.546 47.509,272.625 47.558 C 272.828 47.683,274.728 50.498,274.648 50.556 C 273.301 51.543,270.873 52.819,270.325 52.829 C 270.183 52.831,269.995 52.905,269.908 52.992 C 269.716 53.184,267.138 53.676,265.740 53.788 C 263.899 53.934,260.285 53.106,258.866 52.213 C 257.651 51.448,256.439 50.395,255.767 49.522 C 254.560 47.954,254.089 46.898,253.113 43.583 C 252.830 42.622,252.850 36.640,253.140 35.667 C 254.413 31.387,255.419 29.643,257.671 27.809 C 258.884 26.821,260.843 25.862,262.167 25.608 C 263.486 25.356,267.596 25.619,268.583 26.020 M287.655 26.923 C 287.845 27.431,288.000 27.941,288.000 28.056 C 288.000 28.172,288.062 28.338,288.139 28.425 C 288.215 28.512,288.368 28.921,288.480 29.333 C 288.591 29.746,288.751 30.233,288.834 30.417 C 288.918 30.600,289.519 32.362,290.169 34.333 C 290.819 36.304,291.417 38.067,291.497 38.250 C 291.578 38.433,291.730 38.883,291.836 39.250 C 291.942 39.617,292.127 40.142,292.247 40.417 C 292.367 40.692,292.519 41.179,292.585 41.500 C 292.651 41.821,292.760 42.158,292.826 42.250 C 292.892 42.342,293.196 43.204,293.500 44.167 C 293.804 45.129,294.105 45.992,294.167 46.083 C 294.230 46.175,294.381 46.625,294.502 47.083 C 294.985 48.912,294.984 48.913,296.755 43.544 C 297.655 40.816,298.442 38.508,298.505 38.417 C 298.567 38.325,298.710 37.876,298.822 37.419 C 298.933 36.962,299.083 36.512,299.155 36.419 C 299.227 36.326,299.377 35.876,299.488 35.419 C 299.600 34.962,299.749 34.512,299.820 34.419 C 299.890 34.326,300.047 33.875,300.167 33.417 C 300.287 32.958,300.437 32.508,300.500 32.417 C 300.563 32.325,300.713 31.875,300.833 31.417 C 300.953 30.958,301.103 30.508,301.167 30.417 C 301.230 30.325,301.380 29.875,301.500 29.417 C 301.620 28.958,301.769 28.508,301.830 28.417 C 301.891 28.325,302.033 27.912,302.145 27.500 C 302.573 25.923,302.424 26.000,305.039 26.000 C 307.170 26.000,307.348 26.023,307.262 26.292 C 307.211 26.452,305.000 32.546,302.350 39.833 L 297.531 53.083 294.910 53.083 L 292.288 53.083 290.458 48.000 C 289.451 45.204,288.531 42.692,288.415 42.417 C 288.299 42.142,288.153 41.729,288.091 41.500 C 288.030 41.271,287.911 40.933,287.827 40.750 C 287.646 40.351,287.234 39.200,286.902 38.167 C 286.769 37.754,286.556 37.192,286.427 36.917 C 286.298 36.642,286.138 36.197,286.070 35.928 C 286.003 35.659,285.848 35.246,285.725 35.011 C 285.603 34.776,285.499 34.471,285.495 34.333 C 285.492 34.196,285.344 33.783,285.167 33.417 C 284.990 33.050,284.840 32.637,284.833 32.500 C 284.827 32.362,284.677 31.950,284.500 31.583 C 284.323 31.217,284.175 30.828,284.172 30.719 C 284.169 30.611,284.082 30.311,283.978 30.053 C 283.543 28.974,282.667 26.404,282.667 26.210 C 282.667 26.051,283.232 26.000,284.988 26.000 L 287.309 26.000 287.655 26.923 M388.959 27.279 C 390.848 28.234,391.769 30.897,390.836 32.706 C 388.437 37.361,381.959 35.301,382.734 30.131 C 383.132 27.476,386.395 25.981,388.959 27.279 M78.250 29.313 C 76.438 29.837,75.379 30.755,74.444 32.609 C 72.741 35.986,72.747 43.205,74.455 46.816 C 76.506 51.150,82.153 51.139,85.419 46.795 L 86.167 45.800 86.167 39.175 L 86.167 32.550 85.688 31.889 C 84.035 29.607,80.940 28.535,78.250 29.313 M47.480 29.399 C 44.257 30.330,42.754 33.569,42.754 39.583 C 42.754 47.586,46.047 51.345,51.641 49.727 C 55.474 48.619,57.508 42.450,56.250 35.750 C 55.272 30.544,51.919 28.115,47.480 29.399 M109.624 29.337 C 106.653 30.087,104.167 33.743,104.167 37.363 C 104.167 37.652,104.507 37.667,111.151 37.667 L 118.135 37.667 118.053 36.625 C 117.630 31.237,114.120 28.203,109.624 29.337 M231.583 29.314 C 227.474 30.393,225.374 37.430,227.049 44.500 C 228.486 50.561,234.037 51.899,238.326 47.217 L 239.333 46.118 239.333 39.162 L 239.333 32.205 238.233 31.176 C 236.409 29.469,233.788 28.735,231.583 29.314 M263.295 29.315 C 260.253 29.958,258.110 32.716,257.742 36.458 L 257.624 37.667 264.478 37.667 L 271.333 37.667 271.333 36.771 C 271.333 31.866,267.601 28.404,263.295 29.315 M388.750 44.851 C 391.288 45.975,391.935 49.591,390.174 52.795 C 390.086 52.953,389.630 53.983,389.161 55.083 C 388.356 56.966,388.183 57.368,387.596 58.708 C 387.466 59.006,387.087 59.887,386.753 60.667 C 385.971 62.496,385.964 62.500,383.880 62.500 C 381.835 62.500,381.841 62.506,382.223 60.783 C 382.369 60.123,382.609 59.021,382.755 58.333 C 382.901 57.646,383.087 56.933,383.168 56.750 C 383.302 56.448,383.518 55.529,384.037 53.056 C 384.215 52.205,384.211 52.188,383.626 51.505 C 380.670 48.051,384.563 42.996,388.750 44.851 M204.242 44.654 C 204.294 44.738,204.574 44.860,204.862 44.923 C 206.156 45.207,207.932 48.076,207.614 49.368 C 207.562 49.578,207.434 50.107,207.329 50.543 C 206.380 54.499,200.598 54.862,198.722 51.083 C 197.627 48.879,198.950 45.302,201.013 44.889 C 201.285 44.835,201.547 44.725,201.597 44.645 C 201.717 44.451,204.121 44.458,204.242 44.654 " stroke="none" fill="#2c2c2c" fill-rule="evenodd"></path><path id="path2" d="M350.931 11.152 L 349.793 12.299 352.195 14.691 C 358.682 21.152,360.583 25.774,360.583 35.083 C 360.583 44.371,358.734 48.909,352.304 55.405 L 349.841 57.894 350.629 58.742 C 352.107 60.333,351.940 60.315,353.440 59.052 C 362.614 51.333,366.286 42.674,365.089 31.583 C 364.154 22.923,361.105 17.807,352.409 10.300 C 352.076 10.013,352.041 10.033,350.931 11.152 M328.417 11.186 C 319.861 18.617,316.663 25.121,316.668 35.083 C 316.674 44.973,319.679 51.278,327.821 58.482 C 330.077 60.478,329.743 60.411,330.911 59.097 C 331.434 58.508,331.896 57.993,331.938 57.950 C 331.981 57.908,330.941 56.796,329.627 55.479 C 323.332 49.163,321.170 43.945,321.167 35.059 C 321.165 25.927,323.368 20.878,330.332 14.055 L 332.081 12.341 331.004 11.254 C 329.701 9.939,329.848 9.943,328.417 11.186 M239.664 21.492 C 239.661 29.036,239.674 28.948,238.741 27.986 C 235.426 24.569,228.888 24.835,225.401 28.529 C 221.189 32.990,220.505 43.419,224.036 49.340 C 227.015 54.338,234.026 55.107,238.310 50.906 C 239.804 49.440,239.763 49.427,239.912 51.414 L 240.031 53.000 241.932 53.000 L 243.833 53.000 243.833 34.161 C 243.833 19.233,243.790 15.311,243.625 15.264 C 243.510 15.231,242.573 15.099,241.542 14.969 L 239.667 14.735 239.664 21.492 M263.167 25.674 C 255.652 26.690,251.201 35.287,253.506 44.333 C 255.711 52.992,264.983 56.278,273.198 51.314 C 274.555 50.494,274.551 50.529,273.496 49.026 C 272.506 47.616,272.677 47.647,270.957 48.570 C 264.281 52.153,257.864 49.028,257.468 42.000 L 257.417 41.083 266.447 41.040 L 275.476 40.997 275.598 40.040 C 276.687 31.440,270.805 24.642,263.167 25.674 M282.833 26.322 C 282.833 26.412,284.664 31.533,286.903 37.701 C 290.888 48.687,291.301 49.837,292.026 51.963 L 292.383 53.008 294.882 52.963 L 297.381 52.917 298.942 48.667 C 299.801 46.329,300.610 44.117,300.741 43.750 C 300.871 43.383,301.215 42.446,301.504 41.667 C 301.793 40.887,302.091 40.063,302.167 39.833 C 302.242 39.604,302.540 38.779,302.829 38.000 C 303.118 37.221,303.452 36.321,303.570 36.000 C 303.689 35.679,304.179 34.329,304.659 33.000 C 305.632 30.309,305.956 29.430,306.576 27.805 C 307.235 26.078,307.327 26.166,304.875 26.169 L 302.750 26.172 301.467 30.044 C 297.575 41.787,295.197 48.740,295.056 48.787 C 294.969 48.816,294.511 47.694,294.038 46.295 C 293.168 43.720,289.083 31.692,287.881 28.167 L 287.227 26.250 285.030 26.203 C 283.664 26.175,282.833 26.219,282.833 26.322 M385.430 27.169 C 383.798 27.806,382.774 29.291,382.786 31.000 C 382.812 34.725,387.154 36.534,389.776 33.912 C 392.932 30.756,389.577 25.550,385.430 27.169 M235.880 29.404 C 237.050 29.885,238.557 31.020,239.195 31.900 L 239.667 32.550 239.667 39.175 L 239.667 45.800 238.901 46.819 C 235.829 50.906,230.628 51.313,228.186 47.657 C 225.239 43.242,225.950 32.898,229.381 30.290 C 231.178 28.924,233.833 28.562,235.880 29.404 M266.909 29.355 C 269.618 30.245,271.500 33.385,271.500 37.015 L 271.500 37.833 264.500 37.833 L 257.500 37.833 257.500 37.031 C 257.500 31.638,262.195 27.808,266.909 29.355 M201.271 44.911 C 198.205 46.004,197.461 50.304,199.958 52.501 C 202.860 55.056,207.381 52.998,207.382 49.121 C 207.383 45.941,204.314 43.827,201.271 44.911 M385.237 44.895 C 382.636 46.070,381.955 49.791,383.986 51.737 L 384.448 52.179 383.898 54.381 C 383.174 57.281,382.000 62.154,382.000 62.260 C 382.000 62.306,382.873 62.323,383.940 62.297 L 385.879 62.250 387.315 58.985 C 391.263 50.004,390.906 50.998,390.911 48.974 C 390.917 46.933,390.599 46.245,389.189 45.255 C 388.340 44.658,386.195 44.462,385.237 44.895 " stroke="none" fill="#f9f9b1" fill-rule="evenodd"></path><path id="path3" d="M86.167 21.486 C 86.167 25.252,86.121 28.333,86.066 28.333 C 86.011 28.333,85.611 28.014,85.178 27.625 C 83.154 25.805,79.011 24.906,76.583 25.760 C 76.217 25.889,76.104 25.956,76.333 25.909 C 79.643 25.233,83.181 26.019,85.249 27.890 C 85.704 28.302,86.134 28.604,86.205 28.560 C 86.275 28.516,86.333 25.401,86.333 21.638 L 86.333 14.796 86.875 14.889 C 87.173 14.940,87.867 15.029,88.417 15.085 C 88.967 15.141,89.623 15.226,89.875 15.274 L 90.333 15.360 90.333 34.180 C 90.333 46.669,90.390 53.000,90.501 53.000 C 90.612 53.000,90.654 46.679,90.626 34.125 L 90.583 15.250 89.630 15.062 C 89.105 14.958,88.111 14.820,87.421 14.756 L 86.167 14.638 86.167 21.486 M24.250 25.750 L 23.583 25.973 24.333 25.862 C 25.313 25.716,28.521 25.718,29.583 25.866 L 30.417 25.982 29.750 25.754 C 28.859 25.449,25.153 25.446,24.250 25.750 M46.860 25.689 C 45.740 25.952,46.148 26.032,47.519 25.817 C 48.655 25.639,51.442 25.694,52.750 25.921 C 53.244 26.006,53.245 26.005,52.833 25.810 C 52.293 25.555,47.816 25.464,46.860 25.689 M108.750 25.737 L 108.083 25.967 108.917 25.859 C 110.036 25.713,112.886 25.721,113.917 25.873 C 114.610 25.975,114.680 25.964,114.333 25.806 C 113.686 25.510,109.555 25.459,108.750 25.737 M136.417 25.746 L 135.917 25.996 136.500 25.873 C 137.271 25.710,139.433 25.716,140.167 25.882 C 140.672 25.997,140.706 25.987,140.417 25.806 C 139.901 25.483,137.029 25.440,136.417 25.746 M146.788 25.903 C 145.695 26.353,144.611 27.185,143.825 28.178 L 143.287 28.857 142.807 27.980 C 142.222 26.909,142.011 26.670,141.303 26.274 C 140.835 26.012,140.870 26.070,141.532 26.653 C 141.996 27.062,142.494 27.725,142.759 28.284 L 143.204 29.226 143.811 28.489 C 145.799 26.070,147.884 25.290,150.833 25.863 L 151.417 25.977 150.917 25.746 C 150.075 25.357,147.916 25.440,146.788 25.903 M169.519 25.671 C 168.421 25.900,168.465 26.028,169.592 25.880 C 170.818 25.719,174.022 25.711,175.583 25.865 C 176.497 25.955,176.642 25.942,176.250 25.805 C 175.597 25.576,170.462 25.474,169.519 25.671 M8.905 26.222 C 8.858 26.343,8.841 27.112,8.868 27.930 L 8.917 29.417 11.000 29.500 L 13.083 29.583 13.126 39.620 L 13.169 49.657 11.043 49.703 L 8.917 49.750 8.869 51.375 C 8.838 52.416,8.883 53.000,8.994 53.000 C 9.101 53.000,9.167 52.400,9.167 51.422 L 9.167 49.844 11.208 49.797 L 13.250 49.750 13.293 39.685 C 13.324 32.390,13.284 29.558,13.148 29.394 C 13.009 29.226,12.460 29.167,11.063 29.167 L 9.167 29.167 9.167 27.667 L 9.167 26.167 12.737 26.167 L 16.308 26.167 16.467 27.042 C 16.604 27.788,16.630 27.831,16.645 27.333 C 16.687 25.917,16.932 26.000,12.725 26.000 C 9.772 26.000,8.972 26.046,8.905 26.222 M22.165 26.541 C 20.836 27.226,19.392 28.679,18.282 30.448 C 17.289 32.030,17.174 32.099,17.147 31.125 C 17.136 30.735,17.065 30.192,16.988 29.917 C 16.900 29.599,16.882 29.904,16.939 30.750 C 17.046 32.326,17.207 32.586,17.618 31.849 C 19.063 29.255,20.819 27.345,22.500 26.538 C 23.096 26.252,23.500 26.014,23.398 26.009 C 23.297 26.004,22.742 26.243,22.165 26.541 M30.631 26.500 C 30.671 26.775,30.733 27.000,30.769 27.000 C 30.804 27.000,30.833 26.775,30.833 26.500 C 30.833 26.225,30.771 26.000,30.696 26.000 C 30.620 26.000,30.591 26.225,30.631 26.500 M45.220 26.221 C 44.569 26.462,44.253 26.757,44.833 26.583 C 45.341 26.431,46.148 26.011,45.917 26.019 C 45.825 26.023,45.512 26.113,45.220 26.221 M53.667 26.200 C 56.424 27.378,58.073 28.808,59.301 31.086 C 59.696 31.818,59.969 32.229,59.908 32.000 C 59.341 29.853,55.169 25.942,53.519 26.011 C 53.352 26.018,53.407 26.090,53.667 26.200 M74.485 26.533 C 72.415 27.566,68.993 31.903,69.368 33.020 C 69.411 33.146,69.543 32.950,69.663 32.583 C 70.476 30.088,72.620 27.624,74.975 26.475 C 75.493 26.223,75.835 26.013,75.735 26.008 C 75.635 26.004,75.073 26.240,74.485 26.533 M106.681 26.424 C 103.916 27.710,101.228 30.765,100.599 33.333 C 100.543 33.563,100.762 33.193,101.086 32.511 C 102.593 29.339,104.450 27.558,107.667 26.199 C 107.896 26.102,107.971 26.018,107.833 26.013 C 107.696 26.008,107.177 26.192,106.681 26.424 M115.483 26.349 C 115.886 26.527,116.253 26.636,116.300 26.589 C 116.402 26.487,115.265 25.995,114.964 26.012 C 114.846 26.018,115.080 26.170,115.483 26.349 M128.778 26.111 C 128.590 26.299,128.645 53.000,128.833 53.000 C 128.943 53.000,129.000 48.419,129.000 39.589 L 129.000 26.179 130.625 26.124 L 132.250 26.070 130.569 26.035 C 129.645 26.016,128.839 26.050,128.778 26.111 M134.944 26.517 C 134.515 26.801,133.809 27.450,133.374 27.959 L 132.583 28.885 132.398 27.567 C 132.262 26.592,132.207 26.428,132.190 26.935 C 132.160 27.811,132.344 29.167,132.493 29.167 C 132.556 29.167,132.926 28.775,133.315 28.297 C 133.705 27.818,134.412 27.136,134.887 26.780 C 136.200 25.796,136.229 25.666,134.944 26.517 M151.750 26.253 C 151.933 26.402,152.158 26.575,152.250 26.638 C 152.811 27.026,153.442 27.976,153.787 28.955 C 154.081 29.788,154.157 29.911,154.079 29.424 C 153.867 28.115,152.920 26.715,151.917 26.227 C 151.450 26.000,151.439 26.002,151.750 26.253 M166.944 26.408 C 164.725 27.320,162.990 28.953,162.596 30.500 C 162.538 30.729,162.688 30.542,162.929 30.083 C 163.797 28.435,165.472 27.083,167.458 26.428 C 167.940 26.270,168.333 26.108,168.333 26.070 C 168.333 25.915,167.867 26.028,166.944 26.408 M177.000 26.151 C 177.137 26.248,177.350 26.329,177.472 26.331 C 178.169 26.339,182.000 28.211,182.000 28.543 C 182.000 28.731,180.547 30.951,180.341 31.079 C 180.252 31.134,179.895 31.004,179.548 30.789 C 178.740 30.292,176.944 29.498,176.646 29.507 C 176.520 29.511,176.847 29.693,177.373 29.912 C 177.900 30.130,178.785 30.558,179.340 30.863 L 180.350 31.417 180.672 31.000 C 182.389 28.774,182.415 28.394,180.905 27.553 C 179.445 26.740,176.178 25.567,177.000 26.151 M43.792 26.929 C 43.169 27.267,43.207 27.407,43.833 27.083 C 44.108 26.941,44.333 26.789,44.333 26.746 C 44.333 26.638,44.315 26.645,43.792 26.929 M116.500 26.711 C 116.500 26.748,116.872 27.018,117.326 27.312 C 119.207 28.531,120.961 31.168,121.610 33.750 C 121.772 34.392,121.932 34.777,121.968 34.606 C 122.177 33.590,120.337 29.871,118.912 28.431 C 118.083 27.594,116.500 26.465,116.500 26.711 M42.018 28.260 C 40.964 29.236,39.931 30.725,39.266 32.229 C 38.825 33.226,38.523 34.427,38.821 34.000 C 38.916 33.862,38.996 33.647,38.997 33.521 C 39.008 32.557,40.703 29.787,42.130 28.402 C 43.480 27.091,43.397 26.984,42.018 28.260 M30.442 28.875 C 30.246 31.460,30.169 34.354,30.325 33.250 C 30.500 32.016,30.737 27.500,30.626 27.500 C 30.582 27.500,30.499 28.119,30.442 28.875 M16.709 28.583 C 16.711 28.950,16.745 29.080,16.785 28.873 C 16.824 28.666,16.823 28.366,16.781 28.206 C 16.739 28.047,16.707 28.217,16.709 28.583 M79.711 28.953 C 79.964 28.991,80.339 28.990,80.544 28.951 C 80.749 28.911,80.542 28.880,80.083 28.881 C 79.625 28.882,79.457 28.915,79.711 28.953 M137.417 28.984 C 139.543 29.198,139.400 28.326,139.507 41.750 L 139.598 53.083 139.591 41.750 C 139.582 28.208,139.686 28.788,137.284 28.859 L 136.417 28.884 137.417 28.984 M148.274 28.984 C 150.322 29.183,150.196 28.395,150.326 41.833 L 150.434 53.083 150.425 41.667 C 150.415 28.133,150.533 28.788,148.117 28.859 L 147.250 28.884 148.274 28.984 M170.637 29.007 C 170.025 29.078,169.387 29.220,169.220 29.321 C 168.958 29.480,168.973 29.492,169.333 29.412 C 169.563 29.361,170.537 29.218,171.500 29.095 C 172.463 28.972,172.912 28.872,172.500 28.874 C 172.088 28.876,171.249 28.936,170.637 29.007 M47.417 29.247 L 46.917 29.496 47.500 29.373 C 52.234 28.375,55.182 30.468,56.246 35.583 C 56.488 36.744,56.489 36.746,56.414 35.830 C 56.189 33.060,54.677 30.608,52.500 29.484 C 51.535 28.986,48.248 28.832,47.417 29.247 M77.246 29.475 C 75.302 30.395,73.295 33.537,73.345 35.583 C 73.350 35.767,73.502 35.365,73.683 34.691 C 74.504 31.633,75.896 29.994,78.250 29.313 C 79.014 29.092,79.132 29.021,78.750 29.012 C 78.475 29.006,77.798 29.214,77.246 29.475 M81.744 29.257 C 82.199 29.382,82.604 29.452,82.642 29.413 C 82.765 29.291,81.831 28.999,81.364 29.015 C 81.039 29.026,81.143 29.092,81.744 29.257 M109.012 29.329 C 106.410 30.290,103.856 34.033,104.199 36.380 C 104.229 36.584,104.376 36.139,104.526 35.393 C 105.345 31.325,107.672 29.250,111.417 29.250 C 114.619 29.250,116.310 30.494,117.526 33.748 C 117.746 34.336,117.816 34.430,117.761 34.065 C 117.219 30.419,112.691 27.969,109.012 29.329 M135.296 29.392 C 134.465 29.903,134.073 30.265,133.309 31.223 L 132.667 32.030 132.707 42.557 L 132.747 53.083 132.792 42.597 L 132.836 32.111 133.492 31.260 C 134.189 30.357,134.872 29.786,135.829 29.307 C 136.152 29.146,136.304 29.013,136.167 29.012 C 136.029 29.011,135.637 29.182,135.296 29.392 M146.407 29.248 C 146.111 29.474,146.129 29.480,146.625 29.315 C 147.191 29.126,147.320 29.000,146.949 29.000 C 146.829 29.000,146.585 29.111,146.407 29.248 M174.167 29.149 C 174.671 29.221,175.383 29.331,175.750 29.394 C 176.273 29.483,176.352 29.467,176.116 29.323 C 175.950 29.222,175.237 29.112,174.532 29.078 C 173.373 29.022,173.338 29.029,174.167 29.149 M26.038 29.452 L 26.492 29.521 26.538 32.386 L 26.583 35.250 28.375 35.297 C 29.747 35.334,30.167 35.294,30.167 35.131 C 30.167 34.967,29.758 34.929,28.417 34.969 L 26.667 35.021 26.667 32.177 L 26.667 29.333 26.125 29.358 C 25.627 29.381,25.620 29.389,26.038 29.452 M24.043 29.686 C 21.780 30.340,18.739 33.741,18.100 36.333 C 18.044 36.563,18.262 36.193,18.586 35.511 C 20.164 32.191,21.965 30.452,24.544 29.757 C 25.024 29.628,25.229 29.524,25.000 29.526 C 24.771 29.528,24.340 29.600,24.043 29.686 M46.162 29.775 C 44.468 30.905,42.580 34.255,42.869 35.617 C 42.904 35.782,43.055 35.392,43.205 34.750 C 43.728 32.504,44.612 31.049,46.035 30.091 C 46.518 29.766,46.836 29.500,46.743 29.500 C 46.650 29.500,46.389 29.624,46.162 29.775 M83.670 30.099 C 84.840 30.865,85.111 31.107,85.691 31.900 L 86.167 32.550 86.167 39.175 L 86.167 45.800 85.408 46.810 C 84.748 47.687,83.807 48.559,82.727 49.294 C 82.556 49.410,82.675 49.382,82.990 49.232 C 83.705 48.891,85.216 47.478,85.853 46.553 L 86.333 45.857 86.333 39.108 L 86.333 32.360 85.458 31.401 C 84.632 30.496,83.308 29.500,82.930 29.500 C 82.835 29.500,83.168 29.769,83.670 30.099 M145.323 29.951 C 145.028 30.199,144.497 30.769,144.143 31.216 L 143.500 32.030 143.540 42.557 L 143.581 53.083 143.625 42.604 L 143.669 32.125 144.257 31.324 C 144.580 30.884,145.123 30.296,145.464 30.017 C 145.805 29.739,146.033 29.509,145.971 29.506 C 145.909 29.503,145.618 29.703,145.323 29.951 M168.069 29.815 C 167.514 30.153,166.833 30.931,166.833 31.227 C 166.833 31.327,167.071 31.121,167.362 30.768 C 167.652 30.416,168.121 29.986,168.403 29.814 C 168.686 29.642,168.842 29.501,168.750 29.501 C 168.658 29.501,168.352 29.643,168.069 29.815 M154.294 40.591 C 154.318 46.270,154.360 51.404,154.386 52.000 C 154.413 52.596,154.441 48.171,154.448 42.167 C 154.455 36.162,154.413 31.028,154.355 30.757 C 154.297 30.486,154.270 34.911,154.294 40.591 M162.268 31.264 C 162.125 31.636,162.147 34.377,162.294 34.609 C 162.362 34.715,162.417 33.946,162.417 32.901 C 162.417 31.855,162.406 31.000,162.393 31.000 C 162.380 31.000,162.323 31.119,162.268 31.264 M60.081 32.768 C 60.132 32.962,60.284 33.449,60.417 33.852 L 60.660 34.583 60.565 33.920 C 60.513 33.555,60.362 33.068,60.229 32.837 C 60.034 32.498,60.006 32.485,60.081 32.768 M166.741 33.472 C 166.892 34.407,168.151 35.591,169.333 35.908 C 169.563 35.970,169.337 35.788,168.833 35.504 C 167.669 34.848,167.209 34.388,166.899 33.569 C 166.658 32.934,166.654 32.931,166.741 33.472 M68.837 34.653 C 68.726 35.114,68.669 35.586,68.711 35.704 C 68.752 35.821,68.878 35.479,68.991 34.945 C 69.244 33.746,69.113 33.499,68.837 34.653 M100.168 34.496 C 100.065 34.878,100.009 35.278,100.044 35.383 C 100.080 35.489,100.200 35.211,100.312 34.767 C 100.423 34.323,100.479 33.924,100.435 33.880 C 100.391 33.836,100.271 34.113,100.168 34.496 M38.267 35.368 C 38.208 35.578,38.130 36.537,38.094 37.500 C 38.058 38.462,38.060 38.950,38.099 38.583 C 38.138 38.217,38.248 37.289,38.343 36.523 C 38.515 35.151,38.480 34.620,38.267 35.368 M162.502 35.176 C 162.492 36.326,165.456 38.922,167.333 39.408 C 167.563 39.467,167.115 39.193,166.340 38.799 C 164.760 37.997,163.461 36.819,162.877 35.658 C 162.672 35.250,162.504 35.033,162.502 35.176 M60.917 39.500 C 60.917 42.012,60.971 43.325,61.062 43.038 C 61.142 42.788,61.208 41.196,61.208 39.500 C 61.208 37.804,61.142 36.212,61.062 35.962 C 60.971 35.675,60.917 36.988,60.917 39.500 M118.068 36.542 L 118.128 37.667 111.160 37.667 C 105.071 37.667,104.181 37.635,104.113 37.413 C 104.058 37.236,104.042 37.249,104.061 37.455 C 104.086 37.732,104.516 37.750,111.169 37.750 L 118.250 37.750 118.298 37.250 C 118.325 36.975,118.270 36.450,118.177 36.083 C 118.021 35.473,118.012 35.512,118.068 36.542 M73.107 36.625 C 72.976 37.419,73.005 42.256,73.145 42.907 C 73.203 43.177,73.250 41.733,73.250 39.699 C 73.250 37.664,73.241 36.000,73.230 36.000 C 73.219 36.000,73.164 36.281,73.107 36.625 M170.000 36.148 C 170.303 36.366,172.008 36.881,172.105 36.784 C 172.143 36.746,171.741 36.580,171.212 36.416 C 169.631 35.924,169.714 35.943,170.000 36.148 M42.709 36.750 C 42.711 37.117,42.745 37.247,42.785 37.040 C 42.824 36.832,42.823 36.532,42.781 36.373 C 42.739 36.214,42.707 36.383,42.709 36.750 M68.539 36.667 C 68.539 36.987,68.573 37.119,68.615 36.958 C 68.657 36.798,68.657 36.535,68.615 36.375 C 68.573 36.215,68.539 36.346,68.539 36.667 M122.186 38.625 L 122.167 41.000 113.083 41.000 L 104.000 41.000 104.027 41.625 C 104.053 42.240,104.054 42.242,104.121 41.708 L 104.188 41.167 113.167 41.167 C 118.859 41.167,122.184 41.107,122.248 41.003 C 122.444 40.686,122.525 38.072,122.366 37.167 C 122.225 36.363,122.203 36.542,122.186 38.625 M99.607 37.292 C 99.475 38.088,99.505 41.591,99.649 42.250 C 99.709 42.525,99.756 41.381,99.754 39.708 C 99.750 36.356,99.753 36.407,99.607 37.292 M17.792 36.947 C 17.401 37.663,17.325 38.971,17.369 44.167 L 17.417 49.750 20.119 49.796 L 22.821 49.842 22.876 51.462 L 22.930 53.083 22.965 51.375 L 23.000 49.667 20.250 49.667 L 17.500 49.667 17.502 44.042 C 17.504 39.436,17.551 38.284,17.759 37.687 C 17.981 37.050,18.003 36.562,17.792 36.947 M172.333 36.897 C 172.333 36.989,173.188 37.240,174.083 37.410 C 174.540 37.497,174.532 37.485,173.994 37.274 C 173.265 36.987,172.333 36.776,172.333 36.897 M56.567 39.500 C 56.567 40.921,56.593 41.502,56.624 40.792 C 56.655 40.081,56.655 38.919,56.624 38.208 C 56.593 37.498,56.567 38.079,56.567 39.500 M174.667 37.572 C 174.667 37.611,175.080 37.763,175.586 37.910 C 180.647 39.381,183.028 42.487,182.365 46.752 C 181.940 49.484,180.301 51.300,177.083 52.601 C 176.533 52.824,176.308 52.964,176.583 52.914 C 182.151 51.898,184.661 44.485,180.757 40.586 C 179.391 39.220,174.667 36.882,174.667 37.572 M68.398 39.667 C 68.398 40.813,68.424 41.281,68.457 40.708 C 68.489 40.135,68.489 39.198,68.457 38.625 C 68.424 38.052,68.398 38.521,68.398 39.667 M42.562 39.583 C 42.563 40.592,42.590 40.983,42.623 40.452 C 42.657 39.922,42.656 39.097,42.623 38.619 C 42.589 38.141,42.562 38.575,42.562 39.583 M168.000 39.654 C 168.137 39.733,168.962 40.000,169.833 40.248 C 170.704 40.496,172.043 40.884,172.809 41.110 C 173.574 41.336,174.237 41.485,174.281 41.442 C 174.358 41.364,172.102 40.637,171.083 40.410 C 170.808 40.349,169.998 40.119,169.283 39.899 C 167.915 39.479,167.587 39.416,168.000 39.654 M38.088 41.667 C 38.127 42.629,38.234 43.642,38.327 43.917 C 38.504 44.441,38.491 44.230,38.156 41.167 C 38.030 40.016,38.025 40.055,38.088 41.667 M175.479 42.067 C 176.823 42.808,177.136 43.090,177.525 43.917 C 177.798 44.497,177.826 44.518,177.741 44.083 C 177.576 43.236,176.045 41.926,174.833 41.595 C 174.604 41.533,174.895 41.745,175.479 42.067 M42.709 42.417 C 42.711 42.783,42.745 42.914,42.785 42.706 C 42.824 42.499,42.823 42.199,42.781 42.040 C 42.739 41.880,42.707 42.050,42.709 42.417 M68.542 42.750 C 68.544 43.117,68.578 43.247,68.618 43.040 C 68.658 42.832,68.656 42.532,68.615 42.373 C 68.573 42.214,68.540 42.383,68.542 42.750 M56.267 43.042 C 55.979 44.907,55.978 44.920,56.145 44.662 C 56.321 44.389,56.598 42.333,56.459 42.333 C 56.414 42.333,56.327 42.652,56.267 43.042 M104.266 43.325 C 104.353 44.227,104.669 45.138,104.646 44.417 C 104.640 44.233,104.532 43.708,104.407 43.250 L 104.179 42.417 104.266 43.325 M42.927 44.000 C 43.029 44.868,43.635 46.628,43.886 46.782 C 43.997 46.851,44.008 46.776,43.918 46.569 C 43.785 46.264,43.393 45.074,43.016 43.833 C 42.842 43.259,42.840 43.261,42.927 44.000 M73.428 44.250 C 73.483 44.708,73.671 45.383,73.846 45.750 C 74.174 46.441,74.153 46.316,73.636 44.500 C 73.331 43.427,73.329 43.425,73.428 44.250 M68.766 44.383 C 68.816 44.822,68.958 45.460,69.083 45.799 C 69.406 46.679,69.372 46.285,68.998 44.833 C 68.738 43.822,68.693 43.736,68.766 44.383 M100.096 44.417 C 100.151 44.783,100.269 45.196,100.356 45.333 C 100.547 45.635,100.369 44.595,100.142 44.083 C 100.041 43.856,100.026 43.962,100.096 44.417 M38.512 44.595 C 38.491 44.907,39.044 46.591,39.109 46.411 C 39.143 46.316,39.025 45.828,38.847 45.327 C 38.670 44.826,38.519 44.497,38.512 44.595 M60.345 45.142 C 60.235 45.541,60.180 45.902,60.222 45.945 C 60.342 46.064,60.704 44.859,60.619 44.624 C 60.579 44.510,60.455 44.743,60.345 45.142 M177.887 45.667 C 177.887 46.262,177.917 46.506,177.954 46.208 C 177.991 45.910,177.991 45.423,177.954 45.125 C 177.917 44.827,177.887 45.071,177.887 45.667 M104.763 45.167 C 105.211 46.758,107.727 49.500,108.740 49.500 C 108.835 49.500,108.465 49.206,107.915 48.846 C 106.607 47.990,106.169 47.506,105.336 46.000 C 104.956 45.313,104.698 44.938,104.763 45.167 M55.657 45.697 C 55.294 46.796,54.242 48.287,53.422 48.865 C 53.009 49.156,52.708 49.430,52.753 49.475 C 52.857 49.580,54.152 48.547,54.583 48.014 C 55.288 47.144,56.163 45.274,55.960 45.071 C 55.920 45.031,55.783 45.313,55.657 45.697 M100.597 46.000 C 101.058 47.920,103.425 50.919,105.308 51.969 C 106.304 52.524,106.160 52.318,105.042 51.588 C 103.406 50.521,102.089 48.927,101.069 46.784 C 100.754 46.124,100.542 45.771,100.597 46.000 M59.669 47.037 C 58.618 49.490,56.839 51.351,54.333 52.619 C 53.921 52.827,53.771 52.953,54.000 52.897 C 55.254 52.593,57.367 50.950,58.533 49.372 C 59.217 48.445,60.267 46.378,60.126 46.237 C 60.081 46.193,59.876 46.553,59.669 47.037 M69.345 46.698 C 69.280 48.309,73.985 53.737,74.767 52.955 C 74.810 52.912,74.561 52.746,74.214 52.585 C 73.510 52.260,72.093 51.140,71.586 50.510 C 70.774 49.499,70.426 48.876,69.537 46.833 C 69.414 46.550,69.352 46.507,69.345 46.698 M74.172 46.593 C 74.169 46.690,74.277 46.915,74.411 47.093 C 74.546 47.271,74.658 47.337,74.661 47.240 C 74.664 47.143,74.557 46.918,74.422 46.740 C 74.287 46.562,74.175 46.496,74.172 46.593 M39.170 46.729 C 39.129 48.354,42.981 52.318,45.167 52.901 C 45.396 52.962,45.021 52.730,44.333 52.385 C 42.634 51.532,40.838 49.730,39.879 47.916 C 39.491 47.183,39.172 46.649,39.170 46.729 M177.520 47.285 C 177.259 47.914,176.648 48.508,175.667 49.083 C 175.239 49.333,175.096 49.472,175.333 49.405 C 176.325 49.127,177.974 47.504,177.798 46.979 C 177.761 46.867,177.636 47.005,177.520 47.285 M44.217 47.417 C 45.034 49.017,46.959 50.027,49.319 50.095 L 50.917 50.141 49.417 50.009 C 47.135 49.809,45.648 49.134,44.731 47.881 C 44.066 46.973,43.927 46.847,44.217 47.417 M161.849 48.506 C 161.199 49.242,160.667 49.910,160.667 49.990 C 160.667 50.321,164.080 52.475,164.283 52.272 C 164.339 52.216,164.044 52.020,163.628 51.836 C 163.212 51.652,162.408 51.160,161.840 50.742 L 160.808 49.982 161.767 48.866 C 162.295 48.252,162.816 47.650,162.925 47.527 C 163.089 47.344,163.273 47.410,163.952 47.898 C 164.924 48.596,166.911 49.557,167.190 49.464 C 167.297 49.429,166.957 49.236,166.433 49.035 C 165.910 48.835,164.959 48.333,164.319 47.919 C 163.680 47.505,163.128 47.167,163.093 47.167 C 163.059 47.167,162.499 47.769,161.849 48.506 M74.795 47.750 C 75.398 48.874,77.152 49.972,78.519 50.083 L 79.417 50.155 78.645 50.011 C 77.361 49.771,76.297 49.198,75.433 48.283 C 74.984 47.806,74.696 47.567,74.795 47.750 M118.742 47.825 C 118.655 47.912,117.908 48.329,117.083 48.752 C 116.258 49.175,115.771 49.471,116.000 49.410 C 116.229 49.350,117.052 48.961,117.828 48.546 C 119.105 47.864,119.256 47.819,119.412 48.077 C 119.506 48.234,119.910 48.807,120.310 49.350 C 120.917 50.176,121.002 50.380,120.826 50.592 C 120.527 50.953,118.702 51.948,117.288 52.521 C 116.625 52.790,116.308 52.965,116.583 52.910 C 117.817 52.664,121.167 50.853,121.167 50.432 C 121.167 50.319,120.870 49.820,120.508 49.322 C 120.146 48.824,119.730 48.248,119.584 48.042 C 119.301 47.643,119.001 47.566,118.742 47.825 M51.583 49.760 L 50.917 49.994 51.569 49.920 C 51.928 49.879,52.299 49.768,52.394 49.673 C 52.619 49.448,52.406 49.471,51.583 49.760 M81.500 49.750 C 81.179 49.874,80.692 49.986,80.417 50.000 C 80.142 50.015,80.021 50.068,80.148 50.118 C 80.440 50.234,82.128 49.863,82.257 49.655 C 82.381 49.454,82.215 49.475,81.500 49.750 M85.083 50.726 C 82.751 53.137,79.561 54.040,76.184 53.244 C 75.013 52.968,74.588 53.031,75.609 53.330 C 78.914 54.295,82.587 53.411,84.972 51.075 C 85.644 50.417,86.220 49.962,86.251 50.064 C 86.436 50.678,86.475 50.688,86.487 50.125 C 86.504 49.296,86.441 49.323,85.083 50.726 M109.417 49.735 C 110.512 50.258,114.448 50.206,115.303 49.657 C 115.535 49.508,115.511 49.493,115.167 49.570 C 112.884 50.080,111.734 50.083,109.333 49.583 C 108.972 49.508,108.983 49.528,109.417 49.735 M167.693 49.671 C 168.564 50.180,172.997 50.281,174.300 49.822 C 175.139 49.527,174.868 49.499,173.665 49.756 C 172.243 50.061,170.503 50.059,168.890 49.750 C 167.374 49.460,167.325 49.457,167.693 49.671 M86.542 51.583 C 86.544 51.950,86.578 52.080,86.618 51.873 C 86.658 51.666,86.656 51.366,86.615 51.206 C 86.573 51.047,86.540 51.217,86.542 51.583 M106.167 52.410 C 106.167 52.514,106.647 52.717,107.333 52.901 L 107.750 53.012 107.333 52.777 C 106.811 52.482,106.167 52.279,106.167 52.410 M164.833 52.558 C 165.063 52.687,165.512 52.840,165.833 52.896 L 166.417 52.999 165.833 52.773 C 165.512 52.649,165.063 52.497,164.833 52.434 L 164.417 52.321 164.833 52.558 M45.851 53.166 C 46.740 53.686,51.297 53.791,52.891 53.328 C 53.933 53.026,53.480 52.974,52.181 53.247 C 50.683 53.562,48.424 53.563,47.000 53.250 C 45.730 52.971,45.485 52.953,45.851 53.166 M108.041 53.179 C 108.201 53.273,108.726 53.382,109.207 53.421 L 110.083 53.494 109.083 53.254 C 107.894 52.969,107.649 52.952,108.041 53.179 M114.500 53.256 C 113.904 53.379,112.667 53.499,111.750 53.524 L 110.083 53.568 111.500 53.627 C 112.966 53.687,115.426 53.421,115.844 53.156 C 116.172 52.949,115.885 52.970,114.500 53.256 M166.696 53.173 C 166.849 53.263,167.449 53.372,168.029 53.416 L 169.083 53.496 168.000 53.258 C 166.664 52.965,166.299 52.941,166.696 53.173 M174.333 53.264 L 173.250 53.487 174.262 53.416 C 175.227 53.348,176.542 53.008,175.750 53.031 C 175.567 53.036,174.929 53.141,174.333 53.264 M170.125 53.623 C 170.698 53.656,171.635 53.656,172.208 53.623 C 172.781 53.591,172.313 53.564,171.167 53.564 C 170.021 53.564,169.552 53.591,170.125 53.623 " stroke="none" fill="#197fcf" fill-rule="evenodd"></path><path id="path4" d="M329.154 10.458 L 328.750 10.917 329.177 10.542 C 329.769 10.023,329.793 10.032,330.997 11.247 L 332.069 12.328 329.700 14.691 C 328.398 15.991,327.358 17.080,327.388 17.110 C 327.471 17.193,332.083 12.509,332.083 12.343 C 332.083 12.104,330.014 10.000,329.779 10.000 C 329.658 10.000,329.376 10.206,329.154 10.458 M350.746 11.171 L 349.583 12.342 351.518 14.213 C 354.340 16.942,356.141 19.112,357.326 21.212 C 357.623 21.737,357.903 22.167,357.948 22.167 C 358.585 22.167,354.934 17.424,352.193 14.691 L 349.793 12.299 350.934 11.149 C 351.561 10.517,352.037 10.000,351.991 10.000 C 351.945 10.000,351.385 10.527,350.746 11.171 M352.333 10.193 C 352.954 10.832,355.875 13.377,355.816 13.227 C 355.749 13.056,353.020 10.604,352.417 10.173 C 352.117 9.959,352.108 9.961,352.333 10.193 M328.010 11.337 C 327.695 11.606,327.475 11.864,327.522 11.911 C 327.568 11.957,327.859 11.734,328.169 11.414 C 328.853 10.708,328.784 10.675,328.010 11.337 M326.000 13.226 C 325.404 13.804,324.580 14.647,324.169 15.097 C 323.757 15.548,324.264 15.093,325.294 14.086 C 326.324 13.079,327.167 12.236,327.167 12.211 C 327.167 12.107,327.029 12.227,326.000 13.226 M357.602 15.208 C 358.157 15.781,358.976 16.700,359.423 17.250 C 360.404 18.459,360.597 18.671,360.411 18.333 C 359.990 17.569,356.992 14.167,356.740 14.167 C 356.659 14.167,357.047 14.635,357.602 15.208 M239.458 14.764 C 239.390 14.833,239.333 17.889,239.333 21.557 L 239.333 28.225 238.958 27.884 C 238.323 27.306,236.919 26.382,236.491 26.260 C 236.267 26.196,236.496 26.382,237.000 26.673 C 237.504 26.965,238.269 27.544,238.699 27.961 C 239.464 28.702,239.483 28.710,239.578 28.318 C 239.722 27.729,239.606 14.617,239.458 14.764 M240.042 14.782 C 240.202 14.823,240.465 14.823,240.625 14.782 C 240.785 14.740,240.654 14.705,240.333 14.705 C 240.012 14.705,239.881 14.740,240.042 14.782 M242.167 15.024 C 242.854 15.118,243.510 15.223,243.625 15.259 C 243.790 15.310,243.833 19.235,243.833 34.156 L 243.833 52.989 241.916 53.045 L 239.999 53.100 241.958 53.092 L 243.917 53.083 243.959 34.176 C 243.982 23.777,243.944 15.211,243.875 15.141 C 243.805 15.072,243.111 14.979,242.332 14.934 L 240.917 14.854 242.167 15.024 M322.916 16.402 C 322.825 16.532,322.331 17.188,321.819 17.861 C 320.915 19.047,319.891 20.667,320.044 20.667 C 320.085 20.667,320.399 20.213,320.742 19.658 C 321.084 19.103,321.808 18.091,322.351 17.408 C 322.893 16.725,323.280 16.167,323.209 16.167 C 323.139 16.167,323.007 16.273,322.916 16.402 M326.707 17.896 C 325.692 19.052,323.892 21.781,324.044 21.933 C 324.089 21.978,324.371 21.582,324.670 21.053 C 325.277 19.977,326.329 18.487,326.972 17.792 C 327.205 17.540,327.352 17.333,327.298 17.333 C 327.245 17.333,326.979 17.587,326.707 17.896 M360.965 19.333 C 361.235 19.746,361.658 20.485,361.905 20.975 C 362.153 21.465,362.395 21.827,362.443 21.779 C 362.549 21.673,361.327 19.555,360.833 18.992 C 360.631 18.762,360.689 18.911,360.965 19.333 M319.575 21.349 C 319.429 21.632,319.338 21.894,319.375 21.930 C 319.411 21.966,319.565 21.734,319.717 21.415 C 320.060 20.696,319.941 20.641,319.575 21.349 M323.575 22.682 C 323.429 22.966,323.350 23.239,323.400 23.289 C 323.450 23.339,323.570 23.171,323.667 22.916 C 323.764 22.661,323.883 22.388,323.932 22.309 C 323.980 22.231,323.980 22.167,323.931 22.167 C 323.882 22.167,323.722 22.399,323.575 22.682 M362.673 22.425 C 362.676 22.512,362.791 22.771,362.930 23.000 L 363.181 23.417 363.072 23.000 C 362.958 22.565,362.662 22.139,362.673 22.425 M358.178 22.750 C 358.178 22.842,358.286 23.104,358.417 23.333 C 358.548 23.563,358.655 23.675,358.655 23.583 C 358.655 23.492,358.548 23.229,358.417 23.000 C 358.286 22.771,358.178 22.658,358.178 22.750 M322.928 24.187 C 322.776 24.566,322.691 24.913,322.738 24.961 C 322.820 25.043,322.989 24.677,323.239 23.875 C 323.436 23.241,323.219 23.460,322.928 24.187 M318.351 24.042 C 318.088 24.747,317.978 25.167,318.056 25.167 C 318.100 25.167,318.250 24.829,318.391 24.417 C 318.648 23.663,318.614 23.340,318.351 24.042 M363.439 24.167 C 363.495 24.396,363.644 24.808,363.769 25.083 C 363.952 25.485,363.976 25.501,363.894 25.167 C 363.838 24.938,363.690 24.525,363.564 24.250 C 363.382 23.848,363.357 23.832,363.439 24.167 M358.847 24.281 C 358.827 24.576,359.163 25.393,359.263 25.293 C 359.311 25.245,359.240 24.953,359.105 24.644 C 358.971 24.336,358.854 24.172,358.847 24.281 M229.163 25.891 C 227.597 26.444,226.554 27.105,225.417 28.265 C 224.448 29.254,223.198 31.087,223.373 31.262 C 223.421 31.310,223.702 30.920,223.997 30.396 C 225.579 27.593,227.825 26.160,231.500 25.608 C 231.729 25.574,231.542 25.537,231.083 25.526 C 230.593 25.515,229.802 25.665,229.163 25.891 M233.583 25.649 C 234.133 25.721,234.752 25.829,234.958 25.890 C 235.952 26.182,236.096 26.186,235.608 25.909 C 235.322 25.746,234.626 25.615,233.858 25.578 C 232.618 25.520,232.611 25.522,233.583 25.649 M262.167 25.616 C 261.568 25.717,259.518 26.502,259.414 26.671 C 259.366 26.749,259.759 26.637,260.288 26.423 C 261.166 26.066,262.459 25.763,263.750 25.609 C 264.025 25.577,263.875 25.549,263.417 25.548 C 262.958 25.546,262.396 25.577,262.167 25.616 M266.333 25.668 C 270.492 26.259,273.305 28.698,274.789 33.000 C 275.097 33.892,275.289 34.292,275.229 33.917 C 274.552 29.673,270.464 25.806,266.417 25.580 L 265.250 25.515 266.333 25.668 M317.753 25.708 C 317.544 26.331,317.321 27.377,317.384 27.439 C 317.424 27.479,317.570 27.059,317.709 26.506 C 317.928 25.637,317.958 25.098,317.753 25.708 M322.197 26.364 C 322.098 26.754,322.046 27.101,322.081 27.136 C 322.116 27.172,322.230 26.885,322.333 26.500 C 322.437 26.115,322.489 25.767,322.449 25.727 C 322.410 25.687,322.296 25.974,322.197 26.364 M359.399 25.917 C 359.700 27.149,359.864 27.692,359.918 27.637 C 360.013 27.542,359.676 26.150,359.485 25.848 C 359.346 25.628,359.331 25.639,359.399 25.917 M364.096 26.250 C 364.311 27.147,364.515 27.474,364.407 26.750 C 364.352 26.383,364.233 26.008,364.142 25.917 C 364.032 25.806,364.017 25.919,364.096 26.250 M282.667 26.220 C 282.667 26.531,283.190 28.032,283.271 27.952 C 283.307 27.915,283.224 27.564,283.085 27.172 C 282.947 26.779,282.833 26.390,282.833 26.308 C 282.833 26.223,283.798 26.177,285.028 26.203 L 287.223 26.250 287.556 27.250 C 287.739 27.800,287.917 28.167,287.951 28.065 C 287.985 27.963,287.854 27.456,287.661 26.940 L 287.309 26.000 284.988 26.000 C 283.175 26.000,282.667 26.048,282.667 26.220 M304.812 26.125 L 307.040 26.177 306.948 26.630 C 306.898 26.879,306.813 27.233,306.759 27.417 C 306.706 27.600,306.766 27.525,306.894 27.250 C 307.021 26.975,307.177 26.581,307.241 26.375 L 307.356 26.000 304.970 26.036 L 302.583 26.073 304.812 26.125 M302.433 26.518 C 302.074 27.635,301.979 28.035,302.055 28.111 C 302.104 28.160,302.261 27.804,302.405 27.321 C 302.626 26.578,302.652 25.838,302.433 26.518 M258.250 27.340 C 255.919 29.078,252.951 33.770,253.376 35.046 C 253.411 35.148,253.537 34.861,253.658 34.408 C 254.419 31.557,256.343 28.856,258.840 27.134 C 259.065 26.978,259.175 26.849,259.083 26.847 C 258.992 26.844,258.617 27.066,258.250 27.340 M385.208 27.082 C 384.910 27.211,384.667 27.355,384.667 27.400 C 384.667 27.446,384.910 27.384,385.208 27.263 C 385.506 27.142,385.863 27.002,386.000 26.951 C 386.222 26.870,386.222 26.859,386.000 26.853 C 385.863 26.849,385.506 26.952,385.208 27.082 M388.101 27.070 C 388.477 27.188,388.871 27.337,388.976 27.402 C 389.081 27.467,389.167 27.474,389.167 27.418 C 389.167 27.269,388.059 26.832,387.714 26.844 C 387.550 26.851,387.725 26.952,388.101 27.070 M384.038 27.759 C 383.835 27.901,383.584 28.182,383.480 28.384 C 383.344 28.647,383.461 28.589,383.896 28.176 C 384.455 27.644,384.574 27.500,384.454 27.500 C 384.428 27.500,384.241 27.616,384.038 27.759 M389.833 28.115 C 390.153 28.464,390.483 28.825,390.566 28.917 C 390.786 29.161,390.497 28.664,390.110 28.133 C 389.930 27.885,389.663 27.637,389.516 27.581 C 389.370 27.525,389.512 27.765,389.833 28.115 M306.367 28.286 C 306.101 28.980,305.968 29.500,306.056 29.500 C 306.161 29.500,306.683 27.961,306.605 27.883 C 306.572 27.850,306.465 28.031,306.367 28.286 M317.113 28.065 C 317.062 28.200,316.980 28.785,316.931 29.364 L 316.843 30.417 317.083 29.175 C 317.309 28.001,317.323 27.520,317.113 28.065 M283.426 28.417 C 283.479 28.600,283.565 28.958,283.617 29.212 C 283.668 29.466,283.783 29.719,283.873 29.774 C 284.058 29.889,283.919 29.356,283.560 28.583 C 283.433 28.308,283.372 28.233,283.426 28.417 M321.598 28.958 C 321.349 30.801,321.330 31.088,321.477 30.750 C 321.641 30.373,321.902 28.167,321.782 28.167 C 321.739 28.167,321.656 28.523,321.598 28.958 M288.000 28.353 C 288.000 28.625,288.537 30.186,288.606 30.116 C 288.709 30.013,288.330 28.644,288.139 28.425 C 288.062 28.338,288.000 28.306,288.000 28.353 M301.767 28.518 C 301.408 29.635,301.313 30.035,301.389 30.111 C 301.437 30.160,301.595 29.804,301.738 29.321 C 301.959 28.578,301.985 27.838,301.767 28.518 M364.761 28.833 C 364.810 29.154,364.917 29.904,365.000 30.500 L 365.151 31.583 365.068 30.286 C 365.022 29.572,364.915 28.822,364.829 28.619 C 364.704 28.324,364.690 28.368,364.761 28.833 M360.291 30.167 C 360.344 30.946,360.447 31.771,360.521 32.000 C 360.680 32.491,360.524 30.406,360.328 29.417 C 360.245 28.999,360.231 29.279,360.291 30.167 M382.995 29.176 C 382.894 29.364,382.836 29.593,382.867 29.683 C 382.897 29.774,383.008 29.620,383.113 29.341 C 383.332 28.760,383.266 28.669,382.995 29.176 M231.500 29.156 C 230.227 29.544,228.647 30.746,228.160 31.696 C 228.050 31.909,228.354 31.649,228.834 31.118 C 231.268 28.424,235.318 28.449,238.233 31.176 L 239.333 32.205 239.333 39.162 L 239.333 46.118 238.324 47.220 C 237.769 47.826,236.944 48.562,236.491 48.856 C 236.037 49.149,235.667 49.414,235.667 49.445 C 235.667 49.898,238.021 47.989,238.894 46.829 L 239.667 45.800 239.667 39.175 L 239.667 32.550 239.195 31.900 C 237.591 29.688,233.978 28.399,231.500 29.156 M262.613 29.328 C 260.494 30.005,257.633 33.152,258.037 34.361 C 258.078 34.483,258.237 34.207,258.390 33.747 C 260.545 27.266,269.608 27.847,270.995 34.555 C 271.105 35.089,271.234 35.488,271.281 35.441 C 271.446 35.277,271.001 33.670,270.494 32.596 C 269.128 29.706,265.778 28.317,262.613 29.328 M390.836 29.677 C 390.926 29.991,391.000 30.586,391.000 31.000 C 391.000 31.414,390.926 32.009,390.836 32.323 C 390.706 32.776,390.715 32.852,390.878 32.689 C 391.010 32.557,391.083 31.953,391.083 31.000 C 391.083 30.047,391.010 29.443,390.878 29.311 C 390.715 29.148,390.706 29.224,390.836 29.677 M305.700 30.120 C 305.434 30.814,305.301 31.333,305.390 31.333 C 305.494 31.333,306.017 29.794,305.939 29.716 C 305.905 29.683,305.798 29.865,305.700 30.120 M284.105 30.458 C 284.278 31.176,284.502 31.720,284.588 31.635 C 284.674 31.549,284.178 30.000,284.064 30.000 C 284.026 30.000,284.044 30.206,284.105 30.458 M288.701 30.500 C 288.747 30.637,289.178 31.936,289.659 33.385 C 290.141 34.835,290.567 35.989,290.607 35.949 C 290.707 35.849,288.982 30.622,288.781 30.417 C 288.673 30.307,288.646 30.335,288.701 30.500 M301.100 30.518 C 300.741 31.635,300.646 32.035,300.722 32.111 C 300.771 32.160,300.928 31.804,301.071 31.321 C 301.292 30.578,301.318 29.838,301.100 30.518 M223.037 31.777 C 222.950 31.946,222.834 32.308,222.778 32.583 C 222.700 32.969,222.752 32.916,223.008 32.351 C 223.330 31.641,223.354 31.160,223.037 31.777 M304.936 32.269 C 304.788 32.702,304.696 33.085,304.732 33.121 C 304.767 33.156,304.917 32.830,305.064 32.397 C 305.212 31.964,305.304 31.581,305.268 31.546 C 305.233 31.511,305.083 31.836,304.936 32.269 M284.771 32.292 C 284.945 33.009,285.168 33.554,285.254 33.468 C 285.340 33.382,284.845 31.833,284.731 31.833 C 284.692 31.833,284.710 32.040,284.771 32.292 M365.212 32.500 C 365.212 32.912,365.245 33.081,365.284 32.875 C 365.324 32.669,365.324 32.331,365.284 32.125 C 365.245 31.919,365.212 32.087,365.212 32.500 M227.493 32.893 C 227.089 33.808,226.620 35.616,226.718 35.882 C 226.759 35.993,226.842 35.858,226.903 35.583 C 227.148 34.473,227.471 33.383,227.730 32.792 C 227.881 32.448,227.962 32.167,227.910 32.167 C 227.857 32.167,227.670 32.494,227.493 32.893 M321.223 33.333 C 321.223 34.021,321.252 34.302,321.288 33.958 C 321.324 33.615,321.324 33.052,321.288 32.708 C 321.252 32.365,321.223 32.646,321.223 33.333 M382.833 32.385 C 382.833 32.505,382.945 32.749,383.081 32.926 C 383.308 33.222,383.313 33.204,383.148 32.708 C 382.959 32.143,382.833 32.013,382.833 32.385 M300.433 32.518 C 300.077 33.626,299.979 34.034,300.051 34.106 C 300.097 34.152,300.251 33.794,300.393 33.310 C 300.613 32.560,300.649 31.846,300.433 32.518 M316.455 34.208 C 316.404 34.873,316.421 35.829,316.491 36.333 C 316.597 37.084,316.624 36.866,316.643 35.125 C 316.669 32.754,316.593 32.382,316.455 34.208 M389.717 33.936 C 389.240 34.431,388.984 34.764,389.148 34.677 C 389.448 34.516,390.667 33.237,390.667 33.083 C 390.667 32.954,390.637 32.980,389.717 33.936 M222.425 33.351 C 222.276 33.770,222.008 35.078,222.019 35.333 C 222.025 35.471,222.169 35.061,222.339 34.421 C 222.607 33.417,222.666 32.676,222.425 33.351 M304.269 34.103 C 304.122 34.536,304.030 34.919,304.065 34.954 C 304.100 34.989,304.250 34.664,304.397 34.231 C 304.545 33.798,304.637 33.415,304.602 33.379 C 304.566 33.344,304.417 33.670,304.269 34.103 M383.500 33.667 C 383.598 33.850,383.762 34.000,383.865 34.000 C 383.968 34.000,383.916 33.850,383.750 33.667 C 383.584 33.483,383.420 33.333,383.385 33.333 C 383.350 33.333,383.402 33.483,383.500 33.667 M285.438 34.125 C 285.611 34.842,285.835 35.387,285.921 35.301 C 286.007 35.215,285.512 33.667,285.398 33.667 C 285.359 33.667,285.377 33.873,285.438 34.125 M299.693 34.685 C 299.610 34.904,299.496 35.346,299.439 35.667 C 299.364 36.089,299.427 36.001,299.667 35.347 C 299.850 34.850,299.964 34.408,299.921 34.365 C 299.878 34.322,299.775 34.466,299.693 34.685 M257.683 35.497 C 257.582 35.966,257.500 36.684,257.500 37.092 L 257.500 37.833 264.500 37.833 L 271.500 37.833 271.468 36.792 L 271.437 35.750 271.377 36.708 L 271.317 37.667 264.492 37.667 L 257.667 37.667 257.668 37.208 C 257.668 36.956,257.742 36.305,257.831 35.760 C 258.032 34.529,257.930 34.346,257.683 35.497 M275.400 35.333 C 275.599 36.679,275.701 39.195,275.593 40.064 L 275.476 40.997 266.447 41.040 L 257.417 41.083 257.468 42.000 C 257.655 45.314,259.338 48.092,261.917 49.343 C 263.319 50.023,266.543 50.250,268.000 49.771 L 268.750 49.525 268.000 49.637 C 262.019 50.536,258.177 47.863,257.729 42.489 L 257.619 41.170 266.684 41.126 L 275.750 41.083 275.733 38.237 C 275.721 36.336,275.649 35.284,275.515 35.070 C 275.341 34.794,275.326 34.829,275.400 35.333 M385.300 35.030 C 385.597 35.332,388.238 35.330,388.536 35.027 C 388.712 34.849,388.661 34.834,388.250 34.947 C 387.975 35.022,387.375 35.083,386.917 35.083 C 386.458 35.083,385.858 35.022,385.583 34.947 C 385.170 34.833,385.121 34.848,385.300 35.030 M303.706 35.620 C 303.519 36.122,303.029 37.462,302.500 38.917 C 302.317 39.421,302.017 40.246,301.833 40.750 C 301.650 41.254,301.354 42.060,301.177 42.542 C 300.999 43.023,300.511 44.354,300.093 45.500 C 299.674 46.646,298.891 48.783,298.353 50.250 L 297.373 52.917 294.872 52.963 L 292.372 53.008 292.261 52.568 C 292.200 52.326,292.114 52.163,292.071 52.207 C 292.027 52.251,292.067 52.487,292.159 52.731 L 292.328 53.175 294.930 53.129 L 297.532 53.083 300.768 44.182 C 302.548 39.287,303.976 35.253,303.941 35.219 C 303.906 35.184,303.801 35.365,303.706 35.620 M253.050 35.939 C 252.815 36.782,252.887 43.204,253.135 43.583 C 253.336 43.889,253.346 43.875,253.257 43.417 C 253.034 42.258,252.965 38.036,253.151 36.852 C 253.347 35.596,253.290 35.076,253.050 35.939 M286.067 35.909 C 286.237 36.589,286.504 37.218,286.588 37.135 C 286.681 37.042,286.173 35.500,286.050 35.500 C 286.002 35.500,286.010 35.684,286.067 35.909 M321.223 36.833 C 321.223 37.521,321.252 37.802,321.288 37.458 C 321.324 37.115,321.324 36.552,321.288 36.208 C 321.252 35.865,321.223 36.146,321.223 36.833 M221.721 36.458 C 221.548 37.303,221.589 42.825,221.771 43.282 C 221.860 43.505,221.917 42.135,221.917 39.740 C 221.917 35.552,221.914 35.511,221.721 36.458 M290.780 36.583 C 290.834 36.858,290.982 37.308,291.107 37.583 L 291.335 38.083 291.242 37.602 C 291.191 37.337,291.043 36.887,290.915 36.602 L 290.680 36.083 290.780 36.583 M226.440 37.358 C 226.309 38.618,226.325 40.965,226.473 42.083 C 226.534 42.542,226.583 41.435,226.583 39.625 C 226.583 35.916,226.586 35.962,226.440 37.358 M299.026 36.685 C 298.943 36.904,298.829 37.346,298.772 37.667 C 298.697 38.089,298.760 38.001,299.000 37.347 C 299.183 36.850,299.297 36.408,299.254 36.365 C 299.211 36.322,299.108 36.466,299.026 36.685 M365.214 37.750 C 365.216 38.208,365.248 38.376,365.286 38.123 C 365.325 37.869,365.324 37.494,365.284 37.289 C 365.244 37.084,365.213 37.292,365.214 37.750 M286.757 37.750 C 286.821 38.025,287.014 38.578,287.187 38.980 C 287.359 39.381,287.500 39.770,287.500 39.844 C 287.500 40.104,287.844 40.879,287.923 40.799 C 288.004 40.719,286.890 37.501,286.725 37.336 C 286.678 37.289,286.692 37.476,286.757 37.750 M360.441 38.447 C 360.272 39.626,360.133 41.417,360.218 41.333 C 360.339 41.214,360.709 37.986,360.613 37.891 C 360.569 37.847,360.492 38.097,360.441 38.447 M291.333 38.186 C 291.333 38.459,291.870 40.019,291.940 39.949 C 292.042 39.847,291.663 38.477,291.472 38.258 C 291.396 38.171,291.333 38.139,291.333 38.186 M298.427 38.518 C 297.599 40.891,296.004 45.893,296.059 45.947 C 296.099 45.987,296.700 44.314,297.396 42.230 C 298.092 40.145,298.627 38.404,298.584 38.362 C 298.542 38.320,298.471 38.390,298.427 38.518 M364.932 39.958 C 364.869 40.577,364.779 41.271,364.731 41.500 C 364.665 41.822,364.683 41.858,364.813 41.657 C 364.988 41.386,365.274 38.833,365.129 38.833 C 365.084 38.833,364.995 39.340,364.932 39.958 M321.435 40.018 C 321.593 41.525,321.823 42.269,321.713 40.917 C 321.661 40.275,321.555 39.600,321.477 39.417 C 321.391 39.213,321.375 39.448,321.435 40.018 M316.936 40.829 C 316.985 41.422,317.093 42.022,317.176 42.162 C 317.280 42.337,317.299 42.260,317.237 41.917 C 317.187 41.642,317.079 41.042,316.996 40.583 C 316.855 39.797,316.851 39.810,316.936 40.829 M292.096 40.542 C 292.161 40.748,292.316 41.179,292.440 41.500 L 292.666 42.083 292.562 41.500 C 292.434 40.786,292.209 40.167,292.076 40.167 C 292.022 40.167,292.031 40.335,292.096 40.542 M288.067 41.409 C 288.237 42.089,288.504 42.718,288.588 42.635 C 288.681 42.542,288.173 41.000,288.050 41.000 C 288.002 41.000,288.010 41.184,288.067 41.409 M292.667 42.187 C 292.667 42.389,293.209 43.846,293.264 43.791 C 293.356 43.699,292.989 42.438,292.818 42.258 C 292.735 42.171,292.667 42.139,292.667 42.187 M359.668 43.162 C 359.565 43.545,359.511 43.946,359.549 44.054 C 359.586 44.162,359.698 43.876,359.797 43.419 C 360.018 42.396,359.924 42.209,359.668 43.162 M288.667 42.952 C 288.667 43.174,291.163 50.055,291.284 50.167 C 291.428 50.299,291.207 49.626,289.972 46.170 C 288.852 43.035,288.667 42.578,288.667 42.952 M364.214 43.601 C 364.111 44.049,364.054 44.443,364.086 44.475 C 364.179 44.568,364.526 43.162,364.460 42.963 C 364.427 42.865,364.317 43.152,364.214 43.601 M322.106 43.417 C 322.281 44.210,322.520 44.686,322.398 44.000 C 322.342 43.679,322.228 43.304,322.145 43.167 C 322.047 43.003,322.034 43.090,322.106 43.417 M226.749 43.917 C 227.321 47.695,229.722 50.146,232.867 50.163 C 233.733 50.167,235.288 49.875,235.405 49.685 C 235.446 49.619,234.941 49.673,234.282 49.805 C 230.678 50.530,227.646 48.290,227.066 44.474 C 227.005 44.076,226.886 43.637,226.801 43.500 C 226.700 43.335,226.682 43.477,226.749 43.917 M317.518 43.583 C 317.516 43.767,317.621 44.142,317.751 44.417 L 317.986 44.917 317.885 44.417 C 317.829 44.142,317.725 43.767,317.652 43.583 L 317.521 43.250 317.518 43.583 M222.018 44.094 C 221.979 44.473,222.369 46.259,222.525 46.417 C 222.634 46.527,222.652 46.430,222.578 46.130 C 222.517 45.881,222.370 45.281,222.252 44.797 C 222.133 44.313,222.029 43.997,222.018 44.094 M253.346 44.214 C 253.235 46.802,257.296 52.007,260.000 52.742 C 260.229 52.804,259.854 52.539,259.167 52.153 C 256.607 50.717,254.586 48.077,253.672 44.979 C 253.500 44.395,253.353 44.050,253.346 44.214 M293.425 44.398 C 293.476 44.663,293.623 45.113,293.752 45.398 L 293.986 45.917 293.887 45.417 C 293.832 45.142,293.685 44.692,293.560 44.417 L 293.332 43.917 293.425 44.398 M386.123 44.496 C 385.093 44.691,385.277 44.750,386.919 44.750 C 388.468 44.750,388.690 44.621,387.417 44.461 C 387.050 44.415,386.468 44.430,386.123 44.496 M201.609 44.625 C 201.567 44.694,202.155 44.750,202.917 44.750 C 203.678 44.750,204.267 44.694,204.224 44.625 C 204.182 44.556,203.593 44.500,202.917 44.500 C 202.240 44.500,201.652 44.556,201.609 44.625 M200.542 45.037 C 200.335 45.136,200.167 45.283,200.167 45.363 C 200.167 45.477,200.676 45.230,201.153 44.884 C 201.319 44.763,200.883 44.872,200.542 45.037 M359.019 45.352 C 358.916 45.646,358.861 45.917,358.897 45.952 C 358.932 45.988,359.045 45.776,359.148 45.481 C 359.251 45.187,359.306 44.917,359.270 44.881 C 359.234 44.845,359.121 45.057,359.019 45.352 M384.321 45.286 C 383.641 45.858,382.831 46.968,382.840 47.317 C 382.844 47.463,382.991 47.294,383.167 46.941 C 383.583 46.108,383.782 45.876,384.567 45.306 C 384.924 45.046,385.136 44.833,385.038 44.833 C 384.939 44.833,384.617 45.037,384.321 45.286 M205.558 45.432 C 205.907 45.669,206.412 46.209,206.680 46.631 C 206.948 47.053,207.167 47.320,207.167 47.224 C 207.167 46.734,205.524 45.000,205.061 45.000 C 204.985 45.000,205.208 45.194,205.558 45.432 M389.372 45.350 C 389.623 45.537,390.016 45.929,390.245 46.220 C 390.475 46.512,390.664 46.692,390.665 46.621 C 390.668 46.409,389.306 45.000,389.104 45.005 C 389.001 45.008,389.122 45.164,389.372 45.350 M322.678 45.205 C 322.659 45.402,323.202 46.687,323.274 46.615 C 323.311 46.578,323.194 46.219,323.015 45.816 C 322.836 45.413,322.685 45.138,322.678 45.205 M363.529 45.657 C 363.420 45.967,363.368 46.256,363.411 46.300 C 363.523 46.411,363.857 45.489,363.785 45.271 C 363.752 45.173,363.637 45.346,363.529 45.657 M318.178 45.667 C 318.178 45.804,318.291 46.104,318.430 46.333 L 318.681 46.750 318.570 46.333 C 318.410 45.729,318.177 45.332,318.178 45.667 M294.000 46.020 C 294.000 46.292,294.537 47.852,294.606 47.783 C 294.709 47.680,294.330 46.310,294.139 46.092 C 294.062 46.005,294.000 45.972,294.000 46.020 M295.595 47.012 C 295.256 48.153,295.381 48.278,295.750 47.167 C 295.906 46.696,295.994 46.272,295.945 46.223 C 295.896 46.174,295.739 46.529,295.595 47.012 M198.854 46.772 C 198.576 47.381,198.697 47.414,199.037 46.823 C 199.191 46.553,199.258 46.333,199.186 46.333 C 199.113 46.333,198.964 46.531,198.854 46.772 M358.360 46.924 C 358.081 47.537,358.134 47.667,358.436 47.110 C 358.577 46.850,358.662 46.606,358.623 46.568 C 358.585 46.530,358.467 46.690,358.360 46.924 M363.167 46.535 C 363.167 46.585,363.053 46.898,362.914 47.230 C 362.776 47.562,362.705 47.833,362.756 47.833 C 362.902 47.833,363.365 46.643,363.260 46.538 C 363.209 46.486,363.167 46.485,363.167 46.535 M222.732 46.930 C 222.788 47.075,222.833 47.286,222.833 47.398 C 222.833 47.511,222.944 47.749,223.080 47.926 C 223.289 48.200,223.286 48.128,223.064 47.458 C 222.920 47.023,222.764 46.667,222.717 46.667 C 222.669 46.667,222.677 46.785,222.732 46.930 M323.333 46.922 C 323.333 47.427,325.529 50.919,326.840 52.500 C 327.862 53.733,331.026 57.030,331.108 56.948 C 331.137 56.918,330.431 56.148,329.539 55.237 C 326.843 52.484,325.062 50.121,323.927 47.792 C 323.505 46.924,323.333 46.673,323.333 46.922 M390.851 47.312 C 391.046 47.873,390.981 50.417,390.755 51.083 L 390.641 51.417 390.860 51.083 C 391.159 50.626,391.168 47.270,390.870 46.971 C 390.698 46.798,390.694 46.862,390.851 47.312 M318.928 47.500 C 318.988 47.729,319.104 47.988,319.185 48.075 C 319.423 48.330,319.350 47.964,319.070 47.500 L 318.819 47.083 318.928 47.500 M198.408 47.681 C 198.244 47.945,198.271 50.338,198.440 50.506 C 198.520 50.586,198.583 49.954,198.583 49.074 C 198.583 48.208,198.569 47.500,198.552 47.500 C 198.534 47.500,198.469 47.581,198.408 47.681 M271.917 47.837 C 271.407 48.177,269.672 49.038,269.101 49.233 C 268.928 49.293,268.836 49.392,268.898 49.453 C 268.959 49.515,269.776 49.175,270.713 48.697 C 271.650 48.219,272.471 47.829,272.537 47.831 C 272.787 47.836,274.349 50.255,274.278 50.527 C 274.229 50.715,274.281 50.779,274.436 50.720 C 274.774 50.590,274.755 50.546,273.693 49.009 C 272.573 47.389,272.580 47.393,271.917 47.837 M294.762 48.333 C 294.932 48.962,295.349 48.985,295.320 48.365 C 295.311 48.178,295.278 48.156,295.220 48.301 C 295.155 48.464,295.073 48.443,294.891 48.217 C 294.667 47.939,294.658 47.948,294.762 48.333 M357.650 48.375 C 357.542 48.581,357.265 49.087,357.033 49.500 C 356.801 49.913,356.691 50.175,356.788 50.083 C 357.030 49.853,358.054 48.000,357.938 48.000 C 357.887 48.000,357.757 48.169,357.650 48.375 M207.392 49.062 C 207.400 49.570,207.463 49.895,207.534 49.785 C 207.705 49.515,207.696 48.638,207.520 48.360 C 207.434 48.224,207.384 48.497,207.392 49.062 M223.333 48.474 C 223.333 49.889,227.226 53.138,229.250 53.411 C 229.775 53.482,229.699 53.434,228.895 53.186 C 226.849 52.555,225.146 51.224,224.102 49.438 C 223.472 48.360,223.333 48.187,223.333 48.474 M319.667 49.000 C 319.854 49.367,320.044 49.667,320.090 49.667 C 320.136 49.667,320.020 49.367,319.833 49.000 C 319.646 48.633,319.456 48.333,319.410 48.333 C 319.364 48.333,319.480 48.633,319.667 49.000 M361.583 49.833 C 361.441 50.108,361.362 50.333,361.408 50.333 C 361.454 50.333,361.608 50.108,361.750 49.833 C 361.892 49.558,361.971 49.333,361.925 49.333 C 361.879 49.333,361.726 49.558,361.583 49.833 M238.236 50.927 C 237.015 52.173,236.236 52.669,234.667 53.199 C 233.857 53.473,233.828 53.497,234.417 53.407 C 235.468 53.246,237.261 52.206,238.426 51.081 C 239.624 49.923,239.660 49.921,239.683 50.986 C 239.692 51.406,239.763 51.938,239.841 52.167 C 239.979 52.576,239.882 50.320,239.742 49.875 C 239.639 49.544,239.487 49.650,238.236 50.927 M320.194 49.958 C 320.399 50.419,321.104 51.498,321.201 51.499 C 321.266 51.499,321.086 51.125,320.802 50.667 C 320.359 49.954,320.014 49.552,320.194 49.958 M382.837 49.947 C 382.830 50.345,383.157 50.977,383.676 51.569 C 384.144 52.102,384.197 52.259,384.117 52.879 L 384.027 53.583 384.243 52.917 C 384.452 52.277,384.441 52.230,383.990 51.750 C 383.731 51.475,383.366 50.913,383.180 50.500 C 382.993 50.087,382.839 49.839,382.837 49.947 M291.431 50.667 C 291.492 50.896,291.641 51.308,291.764 51.583 L 291.986 52.083 291.887 51.583 C 291.832 51.308,291.682 50.896,291.554 50.667 L 291.321 50.250 291.431 50.667 M356.333 50.479 C 356.333 50.817,353.839 53.727,351.994 55.542 C 350.899 56.619,350.062 57.500,350.135 57.500 C 350.314 57.500,354.269 53.453,355.103 52.417 C 356.325 50.897,356.708 50.333,356.520 50.333 C 356.417 50.333,356.333 50.399,356.333 50.479 M206.915 51.171 C 206.564 51.948,205.658 52.825,204.868 53.152 C 204.568 53.276,204.354 53.410,204.393 53.449 C 204.736 53.792,206.816 52.005,207.176 51.059 C 207.445 50.351,207.246 50.436,206.915 51.171 M361.046 50.708 C 360.721 51.130,360.609 51.388,360.807 51.266 C 361.004 51.144,361.399 50.500,361.276 50.500 C 361.238 50.500,361.135 50.594,361.046 50.708 M273.000 51.427 C 272.496 51.748,271.640 52.173,271.097 52.371 C 270.555 52.569,270.196 52.760,270.300 52.794 C 270.668 52.917,274.000 51.215,274.000 50.905 C 274.000 50.792,273.969 50.809,273.000 51.427 M198.833 51.397 C 198.833 51.851,200.820 53.500,201.367 53.500 C 201.486 53.500,201.264 53.341,200.873 53.148 C 200.482 52.955,199.863 52.457,199.498 52.041 C 199.132 51.626,198.833 51.336,198.833 51.397 M359.830 52.458 C 359.439 52.985,358.853 53.698,358.526 54.042 C 358.200 54.385,358.004 54.664,358.091 54.661 C 358.245 54.655,360.245 52.283,360.539 51.758 C 360.846 51.209,360.509 51.542,359.830 52.458 M390.289 52.165 C 390.145 52.533,390.062 52.833,390.105 52.833 C 390.218 52.833,390.699 51.644,390.619 51.564 C 390.582 51.527,390.434 51.797,390.289 52.165 M321.333 51.729 C 321.333 51.957,324.388 55.500,324.585 55.500 C 324.650 55.500,324.278 55.041,323.758 54.480 C 323.239 53.919,322.509 53.057,322.137 52.563 C 321.521 51.748,321.333 51.553,321.333 51.729 M260.948 53.087 C 261.241 53.218,261.803 53.365,262.198 53.412 L 262.917 53.498 262.167 53.277 C 261.754 53.156,261.192 53.009,260.917 52.952 L 260.417 52.847 260.948 53.087 M268.583 53.172 C 267.942 53.338,267.544 53.479,267.700 53.486 C 268.149 53.508,269.734 53.146,269.908 52.982 C 270.113 52.790,270.010 52.805,268.583 53.172 M389.611 53.694 C 389.460 54.078,389.364 54.420,389.398 54.453 C 389.431 54.487,389.583 54.201,389.736 53.819 C 389.889 53.438,389.985 53.096,389.950 53.061 C 389.914 53.025,389.762 53.311,389.611 53.694 M201.890 53.705 C 202.140 53.864,203.526 53.865,203.775 53.706 C 203.880 53.638,203.456 53.583,202.832 53.583 C 202.207 53.582,201.784 53.637,201.890 53.705 M230.502 53.685 C 230.730 53.748,231.367 53.800,231.917 53.800 C 232.467 53.800,233.103 53.748,233.331 53.685 C 233.559 53.621,232.922 53.569,231.917 53.569 C 230.911 53.569,230.275 53.621,230.502 53.685 M263.583 53.681 C 264.247 53.831,266.309 53.831,266.833 53.681 C 267.063 53.615,266.313 53.563,265.167 53.565 C 264.021 53.566,263.308 53.619,263.583 53.681 M383.774 54.112 C 383.725 54.280,383.645 54.717,383.598 55.083 C 383.531 55.596,383.565 55.539,383.746 54.838 C 383.960 54.004,383.984 53.401,383.774 54.112 M388.917 55.276 C 388.777 55.610,388.701 55.923,388.748 55.970 C 388.795 56.017,388.833 56.015,388.833 55.965 C 388.833 55.915,388.947 55.602,389.086 55.270 C 389.224 54.938,389.300 54.667,389.254 54.667 C 389.209 54.667,389.057 54.941,388.917 55.276 M356.250 56.468 C 353.333 59.306,352.158 60.211,351.806 59.892 C 351.634 59.736,351.500 59.697,351.500 59.802 C 351.500 60.500,352.175 60.319,353.368 59.299 C 354.651 58.202,357.975 55.008,357.833 55.009 C 357.787 55.009,357.075 55.666,356.250 56.468 M388.188 56.938 C 388.078 57.179,388.026 57.415,388.072 57.461 C 388.119 57.508,388.237 57.338,388.333 57.083 C 388.562 56.482,388.447 56.367,388.188 56.938 M383.116 56.781 C 383.070 56.855,382.990 57.292,382.939 57.750 L 382.845 58.583 383.080 57.671 C 383.298 56.821,383.313 56.461,383.116 56.781 M326.167 57.097 C 326.167 57.222,326.359 57.404,328.097 58.928 C 329.093 59.801,330.098 60.560,329.583 60.051 C 328.862 59.336,326.167 57.006,326.167 57.097 M331.659 57.375 L 332.058 57.833 331.667 58.250 C 331.451 58.479,331.355 58.667,331.452 58.667 C 332.023 58.667,332.207 57.798,331.730 57.354 L 331.259 56.917 331.659 57.375 M349.673 57.804 C 349.683 57.972,351.167 59.555,351.243 59.479 C 351.280 59.443,350.940 59.026,350.488 58.552 C 350.036 58.079,349.670 57.742,349.673 57.804 M387.833 57.702 C 387.833 57.752,387.720 58.064,387.581 58.396 C 387.442 58.728,387.366 59.000,387.412 59.000 C 387.544 59.000,388.014 57.792,387.919 57.697 C 387.872 57.650,387.833 57.652,387.833 57.702 M330.432 59.641 L 329.780 60.417 330.507 59.714 C 330.907 59.328,331.200 58.979,331.158 58.938 C 331.117 58.898,330.790 59.214,330.432 59.641 M386.951 59.785 C 386.810 60.132,386.494 60.867,386.250 61.417 C 386.006 61.967,385.882 62.342,385.974 62.250 C 386.207 62.018,387.376 59.321,387.284 59.228 C 387.242 59.187,387.093 59.437,386.951 59.785 M382.452 59.583 C 382.396 59.767,382.310 60.217,382.261 60.583 C 382.177 61.202,382.188 61.189,382.415 60.417 C 382.550 59.958,382.636 59.508,382.606 59.417 C 382.576 59.325,382.507 59.400,382.452 59.583 M383.048 62.457 C 383.578 62.490,384.403 62.490,384.881 62.456 C 385.359 62.422,384.925 62.395,383.917 62.396 C 382.908 62.396,382.517 62.424,383.048 62.457 " stroke="none" fill="#7b7b58" fill-rule="evenodd"></path></g></svg>